<?xml version="1.0" encoding="utf-8"?>
<svg xmlns="http://www.w3.org/2000/svg" xmlns:xlink="http://www.w3.org/1999/xlink" version="1.1" id="Layer_1" x="0px" y="0px" viewBox="0 0 281.8 98.4" enable-background="new 0 0 281.8 98.4">
<path fill="#FFFFFF" d="M4.5,1.5c16,31.4,37.6,72.5,77.8,38.3c0.1-0.1,0.3,0.1,0.2,0.2C52.1,75,20.9,89.6,4.2,1.6&#xA;	C4.1,1.4,4.4,1.3,4.5,1.5z"/>
<circle fill="#FFFFFF" cx="51.9" cy="32.1" r="15.2"/>
<g>
	<path fill="#FFFFFF" d="M136.9,62.7c-2,1-6.6,2.1-12.5,2.1C107.6,64.8,99,54.3,99,40.5c0-16.6,11.8-25.8,26.6-25.8&#xA;		c5.7,0,10,1.2,12,2.2l-2.2,8.7c-2.2-0.9-5.3-1.8-9.2-1.8c-8.7,0-15.5,5.3-15.5,16.1c0,9.7,5.8,15.9,15.6,15.9c3.3,0,7-0.7,9.2-1.6&#xA;		L136.9,62.7z"/>
	<path fill="#FFFFFF" d="M154.7,51.6l-3.5,12.5h-11.4l14.9-48.6h14.4l15.1,48.6h-11.8l-3.8-12.5H154.7z M167.1,43.4l-3-10.3&#xA;		c-0.9-2.9-1.7-6.5-2.5-9.4h-0.1c-0.7,2.9-1.4,6.6-2.2,9.4l-2.9,10.3H167.1z"/>
	<path fill="#FFFFFF" d="M189.3,16.1c3.5-0.6,8.8-1,14.7-1c7.2,0,12.3,1.1,15.7,3.8c2.9,2.3,4.5,5.7,4.5,10.2c0,6.2-4.4,10.5-8.6,12&#xA;		v0.2c3.4,1.4,5.3,4.6,6.5,9.1c1.5,5.5,3,11.8,4,13.7h-11.3c-0.8-1.4-1.9-5.3-3.4-11.3c-1.3-6.1-3.4-7.7-7.9-7.8h-3.3v19.1h-10.9&#xA;		V16.1z M200.2,37h4.3c5.5,0,8.7-2.7,8.7-7c0-4.5-3-6.7-8.1-6.8c-2.7,0-4.2,0.2-5,0.4V37H200.2z"/>
	<path fill="#FFFFFF" d="M259.6,43.5h-17.9V55h20v9h-31V15.4h30v9h-19v10.1h17.9V43.5z"/>
</g>
<g>
	<path fill="#FFFFFF" d="M1.1,77.4C2.4,77.1,4.3,77,6.8,77c2.7,0,4.7,0.6,6,1.6c1.2,1,2,2.6,2,4.5s-0.6,3.5-1.7,4.6&#xA;		c-1.5,1.5-3.8,2.2-6.4,2.2c-0.7,0-1.3,0-1.8-0.1v7.6H1.1V77.4z M4.8,86.8c0.5,0.1,1.1,0.1,1.8,0.1c2.8,0,4.4-1.3,4.4-3.7&#xA;		c0-2.2-1.6-3.4-4.1-3.4c-1,0-1.7,0.1-2.1,0.2V86.8z"/>
	<path fill="#FFFFFF" d="M23.4,77.1v8.1h8.5v-8.1h3.7v20.2h-3.7v-8.9h-8.5v8.9h-3.7V77.1H23.4z"/>
	<path fill="#FFFFFF" d="M45.9,97.3v-8.4l-6.4-11.8h4.2l2.4,5.2c0.7,1.5,1.2,2.6,1.7,4h0.1c0.5-1.3,1.1-2.5,1.8-4l2.4-5.2h4.2&#xA;		l-6.7,11.7v8.5C49.6,97.3,45.9,97.3,45.9,97.3z"/>
	<path fill="#FFFFFF" d="M59.6,93.3c1.2,0.7,3,1.3,4.9,1.3c2.4,0,3.7-1.1,3.7-2.8c0-1.5-1-2.4-3.6-3.4c-3.3-1.2-5.5-3-5.5-5.9&#xA;		c0-3.3,2.8-5.8,7.1-5.8c2.2,0,3.8,0.5,4.9,1l-0.9,3c-0.7-0.4-2.1-1-4-1c-2.3,0-3.4,1.3-3.4,2.4c0,1.6,1.2,2.3,3.9,3.3&#xA;		c3.5,1.3,5.2,3.1,5.2,6c0,3.2-2.5,6.1-7.7,6.1c-2.1,0-4.4-0.6-5.5-1.3L59.6,93.3z"/>
	<path fill="#FFFFFF" d="M80.7,77.1v20.2H77V77.1H80.7z"/>
	<path fill="#FFFFFF" d="M101.8,96.7c-0.9,0.4-2.8,0.9-5.2,0.9c-6.4,0-10.3-4-10.3-10.2c0-6.7,4.6-10.7,10.8-10.7&#xA;		c2.4,0,4.2,0.5,4.9,0.9l-0.8,2.9c-1-0.4-2.3-0.8-4-0.8c-4.1,0-7.1,2.6-7.1,7.4c0,4.4,2.6,7.3,7,7.3c1.5,0,3.1-0.3,4-0.8L101.8,96.7&#xA;		z"/>
	<path fill="#FFFFFF" d="M111,91.6l-1.7,5.7h-3.8l6.5-20.2h4.7l6.6,20.2h-4l-1.8-5.7C117.5,91.6,111,91.6,111,91.6z M116.8,88.8&#xA;		l-1.6-5c-0.4-1.2-0.7-2.6-1-3.8h-0.1c-0.3,1.2-0.6,2.6-1,3.8l-1.6,5H116.8z"/>
	<path fill="#FFFFFF" d="M127.9,77.1h3.7v17.1h8.3v3.1h-12C127.9,97.3,127.9,77.1,127.9,77.1z"/>
	<path fill="#FFFFFF" d="M155.7,80.2H150v-3.1h15.3v3.1h-5.8v17.1h-3.7V80.2H155.7z"/>
	<path fill="#FFFFFF" d="M173.1,77.1v8.1h8.5v-8.1h3.7v20.2h-3.7v-8.9h-8.5v8.9h-3.7V77.1H173.1z"/>
	<path fill="#FFFFFF" d="M202.7,88.4h-7.6v5.9h8.5v3h-12.2V77.1h11.8v3h-8.1v5.2h7.6V88.4z"/>
	<path fill="#FFFFFF" d="M208.6,77.4c1.4-0.2,3.5-0.4,5.6-0.4c2.9,0,4.9,0.5,6.2,1.6c1.1,0.9,1.7,2.3,1.7,4c0,2.6-1.8,4.4-3.7,5.1&#xA;		v0.1c1.4,0.5,2.3,2,2.8,3.9c0.6,2.5,1.2,4.9,1.6,5.6H219c-0.3-0.6-0.8-2.2-1.4-4.8c-0.6-2.6-1.5-3.5-3.6-3.5h-1.9v8.3h-3.7V77.4&#xA;		H208.6z M212.3,86.3h2.2c2.5,0,4-1.3,4-3.3c0-2.2-1.6-3.2-4-3.2c-1.2,0-1.9,0.1-2.3,0.2v6.3H212.3z"/>
	<path fill="#FFFFFF" d="M232.4,91.6l-1.7,5.7h-3.8l6.5-20.2h4.7l6.6,20.2h-4l-1.8-5.7C238.9,91.6,232.4,91.6,232.4,91.6z&#xA;		 M238.2,88.8l-1.6-5c-0.4-1.2-0.7-2.6-1-3.8h-0.1c-0.3,1.2-0.6,2.6-1,3.8l-1.6,5H238.2z"/>
	<path fill="#FFFFFF" d="M249.2,77.4c1.3-0.2,3.1-0.4,5.6-0.4c2.7,0,4.7,0.6,6,1.6c1.2,1,2,2.6,2,4.5s-0.6,3.5-1.7,4.6&#xA;		c-1.5,1.5-3.8,2.2-6.4,2.2c-0.7,0-1.3,0-1.8-0.1v7.6h-3.7L249.2,77.4L249.2,77.4z M252.9,86.8c0.5,0.1,1,0.1,1.8,0.1&#xA;		c2.8,0,4.4-1.3,4.4-3.7c0-2.2-1.6-3.4-4.1-3.4c-1,0-1.7,0.1-2.1,0.2V86.8z"/>
	<path fill="#FFFFFF" d="M271.9,97.3v-8.4l-6.4-11.8h4.2l2.4,5.2c0.7,1.5,1.2,2.6,1.7,4h0.1c0.5-1.3,1.1-2.5,1.8-4l2.4-5.2h4.2&#xA;		l-6.7,11.7v8.5C275.6,97.3,271.9,97.3,271.9,97.3z"/>
</g>
</svg>